<svg xmlns="http://www.w3.org/2000/svg" xmlns:xlink="http://www.w3.org/1999/xlink" width="41" height="51.074" viewBox="0 0 41 51.074">
    <defs>
        <linearGradient id="linear-gradient" x1="0.5" x2="0.5" y2="1" gradientUnits="objectBoundingBox">
            <stop offset="0" stop-color="#dbe2db"/>
            <stop offset="1" stop-color="#aa8cb4"/>
        </linearGradient>
    </defs>
    <g id="组_184" data-name="组 184" transform="translate(7761 3162.717)">
        <g id="组_177" data-name="组 177" transform="translate(-212.91 102.431)">
            <g id="组_171" data-name="组 171" transform="translate(-7517.09 -3277.148)">
                <path id="联合_3" data-name="联合 3" d="M0,30.574a20.492,20.492,0,0,1,10.328-17.8l.65-.935A5.9,5.9,0,0,0,11.465,11l3.621-7.583a6,6,0,0,1,10.829,0L29.535,11a5.9,5.9,0,0,0,.488.839l.65.935A20.5,20.5,0,1,1,0,30.574Z" transform="translate(-31 12)" fill="url(#linear-gradient)"/>
            </g>
            <text id="销毁" transform="translate(-7542 -3228.431)" fill="#4f4d4d" font-size="14" font-family="MicrosoftYaHei-Bold, Microsoft YaHei" font-weight="700" letter-spacing="0.002em"><tspan x="0" y="0">销毁</tspan></text>
        </g>
    </g>
</svg>