<svg xmlns="http://www.w3.org/2000/svg" xmlns:xlink="http://www.w3.org/1999/xlink" width="41" height="51.074" viewBox="0 0 41 51.074">
    <defs>
        <linearGradient id="linear-gradient" x1="0.5" x2="0.5" y2="1" gradientUnits="objectBoundingBox">
            <stop offset="0" stop-color="#f9cbfe"/>
            <stop offset="1" stop-color="#fff"/>
        </linearGradient>
    </defs>
    <g id="组_183" data-name="组 183" transform="translate(7877 3162.717)">
        <g id="组_174" data-name="组 174" transform="translate(-7876.679 -3162.717)">
            <path id="联合_3" data-name="联合 3" d="M0,30.574a20.492,20.492,0,0,1,10.328-17.8l.65-.935A5.9,5.9,0,0,0,11.465,11l3.621-7.583a6,6,0,0,1,10.829,0L29.535,11a5.9,5.9,0,0,0,.488.839l.65.935A20.5,20.5,0,1,1,0,30.574Z" transform="translate(-0.321 0)" fill="url(#linear-gradient)"/>
            <g id="组_167" data-name="组 167" transform="translate(9 17.074)">
                <text id="售罄" transform="translate(-3.321 19.643)" fill="#fb549a" font-size="14" font-family="MicrosoftYaHei-Bold, Microsoft YaHei" font-weight="700" letter-spacing="0.002em"><tspan x="0" y="0">售罄</tspan></text>
                <text id="售罄-2" data-name="售罄" transform="translate(-3.321 19.643)" fill="#fb549a" font-size="14" font-family="MicrosoftYaHei-Bold, Microsoft YaHei" font-weight="700" letter-spacing="0.002em"><tspan x="0" y="0">售罄</tspan></text>
            </g>
        </g>
    </g>
</svg>