<svg id="icon_Copy" data-name="icon / Copy" xmlns="http://www.w3.org/2000/svg" width="24" height="24" viewBox="0 0 24 24">
  <g id="Group" transform="translate(1.517 1.5)">
    <g id="More-Square_Copy" data-name="More-Square Copy">
      <path id="Combined_Shape" data-name="Combined Shape" d="M4.766,21a4.629,4.629,0,0,1-3.456-1.389A5.075,5.075,0,0,1,0,16.028V9.3A5.071,5.071,0,0,1,1.312,5.715,4.525,4.525,0,0,1,4.321,4.341,4.558,4.558,0,0,1,8.837,0l.218,0H16.2a4.607,4.607,0,0,1,4.762,4.748l0,.223V11.7a4.624,4.624,0,0,1-4.32,4.954,4.889,4.889,0,0,1-1.28,2.953A4.629,4.629,0,0,1,11.909,21ZM1.429,9.3v6.732a3.227,3.227,0,0,0,3.336,3.542h7.143a3.227,3.227,0,0,0,3.337-3.542V9.3A3.227,3.227,0,0,0,11.91,5.754H4.765A3.227,3.227,0,0,0,1.429,9.3ZM11.91,4.325a4.63,4.63,0,0,1,3.455,1.389A5.079,5.079,0,0,1,16.675,9.3V15.22a3.168,3.168,0,0,0,2.858-3.31l0-.206V4.972A3.207,3.207,0,0,0,16.4,1.434l-.2,0H9.055a3.132,3.132,0,0,0-3.294,2.9Z" fill="#fff"/>
    </g>
  </g>
</svg>
