<svg xmlns="http://www.w3.org/2000/svg" width="138" height="38" viewBox="0 0 138 38">
  <rect id="矩形_83" data-name="矩形 83" width="117" height="38" rx="5" transform="translate(21)" fill="#272727"/>
  <text id="邀请人数" transform="translate(80 24)" fill="#fff" font-size="15" font-family="YuGothicUI-Regular, Yu Gothic UI" letter-spacing="-0.03em"><tspan x="-29.325" y="0">邀</tspan><tspan y="0" font-family="MicrosoftJhengHeiUIRegular, Microsoft JhengHei UI">请</tspan><tspan y="0">人数</tspan></text>
  <rect id="Rectangle_Copy" data-name="Rectangle Copy" width="38" height="38" rx="6" fill="#fff"/>
  <path id="Shape" d="M8.757,16.624a.644.644,0,0,1-.329-.091l-.214-.128a30.411,30.411,0,0,1-5.254-4.089,10.929,10.929,0,0,1-2.6-4.153A6.786,6.786,0,0,1,.531,3.352,5.512,5.512,0,0,1,3.924.275,5.75,5.75,0,0,1,8.518.749l.23.138L8.984.749A5.747,5.747,0,0,1,13.342.206l.233.069a5.519,5.519,0,0,1,3.4,3.08,6.8,6.8,0,0,1,.175,4.822,10.933,10.933,0,0,1-2.6,4.145A30.341,30.341,0,0,1,9.3,16.4l-.2.125A.644.644,0,0,1,8.757,16.624ZM5.682,1.278a4.459,4.459,0,0,0-1.365.214C1.856,2.285.675,4.978,1.569,7.758A9.637,9.637,0,0,0,3.857,11.4a29.136,29.136,0,0,0,5.02,3.908l-.125-.079.41-.258a29.048,29.048,0,0,0,4.021-3.127l.462-.439a9.619,9.619,0,0,0,2.287-3.639c.9-2.785-.285-5.485-2.749-6.279a4.469,4.469,0,0,0-4.049.683.642.642,0,0,1-.757.008L8.2,2.06A4.442,4.442,0,0,0,5.682,1.278Zm7.9,5.522a.645.645,0,0,1-.638-.587A1.726,1.726,0,0,0,11.748,4.7a.641.641,0,0,1,.389-1.218,3,3,0,0,1,2.079,2.621.64.64,0,0,1-.584.691Z" transform="translate(10.249 10.688)" fill="#151515"/>
</svg>
