<svg id="icon_Edit" data-name="icon / Edit" xmlns="http://www.w3.org/2000/svg" width="24" height="24" viewBox="0 0 24 24">
  <g id="Edit" transform="translate(1.942 2.5)">
    <path id="Shape" d="M19.38,19H11.7a.721.721,0,0,1-.1-1.436l.1-.006h7.685a.721.721,0,0,1,.094,1.436ZM.729,19A.728.728,0,0,1,0,18.261l.112-4.4a3.208,3.208,0,0,1,.971-2.215L11.912,1.024a3.621,3.621,0,0,1,5.046,0l1.446,1.419a3.449,3.449,0,0,1,0,4.946L7.534,18.048A3.334,3.334,0,0,1,5.2,19H.729ZM11.072,3.89,2.123,12.66a1.79,1.79,0,0,0-.538,1.232l-.094,3.664h3.7a1.872,1.872,0,0,0,1.184-.421l.12-.108,8.992-8.814Zm3.363-2.446a2.115,2.115,0,0,0-1.482.6l-.842.823,4.412,4.325.841-.825a2.028,2.028,0,0,0,0-2.905L15.917,2.046A2.115,2.115,0,0,0,14.435,1.444Z" fill="#fff"/>
  </g>
</svg>
