<svg xmlns="http://www.w3.org/2000/svg" width="48" height="21" viewBox="0 0 48 21">
  <rect id="Rectangle_Copy" data-name="Rectangle Copy" width="48" height="21" rx="5"/>
  <g id="组件_86_1" data-name="组件 86 – 1" transform="translate(8.875 3.5)">
    <text id="邀请" transform="translate(20.25 11)" fill="#fff" font-size="10" font-family="YuGothicUI-Regular, Yu Gothic UI" letter-spacing="-0.03em"><tspan x="-9.85" y="0">邀</tspan><tspan y="0" font-family="MicrosoftJhengHeiUIRegular, Microsoft JhengHei UI">请</tspan></text>
    <g id="icon_Personal_Active" data-name="icon / Personal / Active" transform="translate(0 1.075)">
      <g id="Add-User" transform="translate(0 0)">
        <path id="Shape" d="M4.362,10.85C1.427,10.85,0,10.242,0,8.992c0-.68.437-1.177,1.3-1.476a9.7,9.7,0,0,1,3.063-.369C7.3,7.147,8.724,7.754,8.724,9c0,.68-.437,1.176-1.3,1.476A9.7,9.7,0,0,1,4.362,10.85Zm0-5.108A2.877,2.877,0,0,1,2.318,4.9a2.874,2.874,0,0,1,0-4.065,2.912,2.912,0,0,1,4.088,0,2.873,2.873,0,0,1,0,4.065A2.878,2.878,0,0,1,4.362,5.741Z" fill="#fff"/>
      </g>
    </g>
  </g>
</svg>
