<svg xmlns="http://www.w3.org/2000/svg" viewBox="0 0 32 32" width="30" height="30" style="border-color: rgba(0,0,0,0);border-width: bpx;border-style: undefined" filter="none">
    
    <g>
    <path d="M27.556 20.562c0-2.136-0.817-4.176-2.191-6.048-0.475-0.643-0.967-1.211-1.5-1.739l-0.001-0.001c-0.64 0.84-1.248 1.434-1.706 1.786-0.661 0.507-1.594-0.093-1.407-0.905 0.912-3.959-0.411-6.907-3.223-9.085-0.786-0.608-1.631-1.107-2.477-1.5 0.065 0.027 0.041 0.015 0.016 0.004l-0.091-0.038c-0.505 3.314-2.039 5.165-5.519 7.878l-0.087 0.068c-3.746 2.92-4.924 4.615-4.924 8.575 0 3.827 2.56 6.923 6.886 8.924-1.4-2.263-1.829-4.435-1.389-6.485 0.385-1.793 1.404-3.36 2.846-4.707 0.64-0.598 1.323-1.113 2.006-1.547 0.414-0.263 0.742-0.443 0.941-0.54 0.82-0.398 1.637 0.55 1.121 1.302-0.010 0.014-0.050 0.090-0.098 0.223-0.475 1.307-0.012 3.085 2.364 5.362 1.806 1.845 2.102 4.114 0.962 6.667 5.034-2.407 7.471-5.152 7.471-8.192zM22.973 10.952c0.286-0.439 0.887-0.536 1.297-0.21 0.171 0.136 0.453 0.383 0.809 0.733 0.612 0.603 1.176 1.252 1.687 1.941l0.032 0.045c1.58 2.153 2.536 4.54 2.536 7.1 0 4.196-3.401 7.671-9.995 10.478l-0.348 0.071h-0.765c-0.717 0-1.139-0.804-0.731-1.394 1.88-2.721 1.951-4.759 0.379-6.367-2.060-1.973-2.973-3.832-3.050-5.461-0.303 0.235-0.571 0.463-0.827 0.703l0.007-0.006c-1.198 1.119-2.022 2.386-2.322 3.782-0.462 2.15 0.325 4.554 2.743 7.263 0.511 0.573 0.105 1.481-0.663 1.481h-0.426l-0.281-0.046c-6.344-2.115-10.386-6.147-10.386-11.51 0-4.633 1.474-6.753 5.609-9.977l0.087-0.068c3.517-2.742 4.706-4.328 4.973-7.801 0.044-0.569 0.605-0.95 1.15-0.781 0.277 0.086 0.734 0.259 1.314 0.528 0.959 0.446 1.917 1.011 2.815 1.706 2.613 2.023 4.176 4.694 4.199 8.025 0.053-0.077 0.106-0.156 0.158-0.236z" fill="rgba(255,255,255,1)"></path>
    </g>
  </svg>