<svg xmlns="http://www.w3.org/2000/svg" viewBox="0 0 32 32" width="37" height="37" style="border-color: rgba(0,0,0,0);border-width: bpx;border-style: undefined" filter="none">
    
    <g>
    <path d="M7.111 28.444c-0.982 0-1.778-0.796-1.778-1.778v-10.667c-0.982 0-1.778-0.796-1.778-1.778v-5.333c0-0.982 0.796-1.778 1.778-1.778h2.756c0.412-2.029 2.205-3.556 4.356-3.556 1.454 0 2.745 0.698 3.556 1.777 0.811-1.079 2.102-1.777 3.555-1.777 2.15 0 3.944 1.527 4.356 3.556l2.756 0c0.982 0 1.778 0.796 1.778 1.778v5.333c0 0.982-0.796 1.778-1.778 1.778v10.667c0 0.982-0.796 1.778-1.778 1.778h-17.778zM17.778 8.889h-3.556v17.778h3.556v-17.778zM12.444 16h-5.333v10.667h5.333v-10.667zM24.889 16h-5.333v10.667h5.333v-10.667zM12.444 8.889h-7.111v5.333h7.111v-5.333zM26.667 8.889h-7.111v5.333h7.111v-5.333zM19.556 5.333c-1.161 0-2.149 0.742-2.515 1.778h5.030c-0.366-1.036-1.354-1.778-2.515-1.778zM12.444 5.333c-1.161 0-2.149 0.742-2.515 1.778h5.030c-0.366-1.036-1.354-1.778-2.515-1.778z" fill="rgba(255,255,255,1)"></path><path d="M14.222 7.111v21.333h-1.778v-21.333h1.778zM19.556 7.111v21.333h-1.778v-21.333h1.778z" fill="rgba(255,255,255,1)"></path>
    </g>
  </svg>