<svg id="icon_Personal_Active" data-name="icon / Personal / Active" xmlns="http://www.w3.org/2000/svg" width="24" height="24" viewBox="0 0 24 24">
  <g id="Add-User" transform="translate(4.5 2.5)">
    <path id="Shape" d="M7.5,19C2.453,19,0,17.936,0,15.746c0-1.191.751-2.06,2.233-2.585A16.4,16.4,0,0,1,7.5,12.515c5.047,0,7.5,1.064,7.5,3.254,0,1.19-.751,2.06-2.233,2.584A16.4,16.4,0,0,1,7.5,19Zm0-8.946A4.9,4.9,0,0,1,3.985,8.587a5.03,5.03,0,0,1-1.448-3.56,5.032,5.032,0,0,1,1.448-3.56,4.943,4.943,0,0,1,7.029,0,5.031,5.031,0,0,1,1.449,3.56,5.03,5.03,0,0,1-1.449,3.56A4.9,4.9,0,0,1,7.5,10.054Z" fill="#fff"/>
  </g>
</svg>
