<svg id="icon_Share" data-name="icon / Share" xmlns="http://www.w3.org/2000/svg" width="24" height="24" viewBox="0 0 24 24">
  <g id="Logout" transform="translate(2 22.269) rotate(-90)">
    <path id="Shape" d="M9.319,20H4.434A4.43,4.43,0,0,1,0,15.774l0-.21V4.436A4.429,4.429,0,0,1,4.225.006L4.434,0H9.309a4.429,4.429,0,0,1,4.431,4.226l0,.208v.932a.752.752,0,0,1-.7.749l-.05,0a.754.754,0,0,1-.744-.648l-.007-.1V4.435A2.938,2.938,0,0,0,9.481,1.5l-.172,0H4.434A2.937,2.937,0,0,0,1.5,4.263l0,.172V15.565A2.939,2.939,0,0,0,4.262,18.5l.172.006H9.319a2.928,2.928,0,0,0,2.92-2.753l0-.171v-.944a.752.752,0,0,1,.7-.747l.052,0a.751.751,0,0,1,.741.648l.007.1v.944A4.422,4.422,0,0,1,9.534,20Zm7.541-6.334a.75.75,0,0,1-.6-1.2l.072-.083,1.641-1.634H7.746a.75.75,0,0,1-.1-1.493l.1-.007H17.972L16.33,7.618a.754.754,0,0,1-.075-.977l.073-.084a.751.751,0,0,1,.976-.076l.084.073L20.306,9.46a.746.746,0,0,1,.232.544.755.755,0,0,1-.236.543l-2.914,2.9A.747.747,0,0,1,16.859,13.666Z" fill="#fff"/>
  </g>
</svg>
