<svg xmlns="http://www.w3.org/2000/svg" viewBox="0 0 32 32" width="24" height="24" style="border-color: rgba(0,0,0,0);border-width: bpx;border-style: undefined" filter="none">
    
    <g>
    <path d="M3.556 14.222c-0.32-0.373-0.276-0.934 0.096-1.253l11.191-9.592c0.666-0.571 1.648-0.571 2.314 0l11.191 9.592c0.373 0.319 0.416 0.881 0.096 1.253s-0.881 0.416-1.253 0.096l-11.191-9.592-11.191 9.592c-0.373 0.319-0.934 0.276-1.253-0.096z" fill="rgba(255,255,255,1)"></path><path d="M7.111 20.388v4.501h17.778v-4.501l-8.889-7.407-8.889 7.407zM5.333 20.388c0-0.548 0.248-1.037 0.637-1.363l0.003-0.002 8.889-7.407c0.659-0.549 1.617-0.549 2.276 0l8.889 7.407c0.392 0.328 0.64 0.818 0.64 1.366v0 4.501c0 0.982-0.796 1.778-1.778 1.778h-17.778c-0.982 0-1.778-0.796-1.778-1.778v-4.501z" fill="rgba(255,255,255,1)"></path>
    </g>
  </svg>