<svg xmlns="http://www.w3.org/2000/svg" viewBox="0 0 32 32" width="24" height="24" style="border-color: rgba(0,0,0,0);border-width: bpx;border-style: undefined" filter="none">
    
    <g>
    <path d="M5.333 22.293v6.151h21.333v-6.151l-5.736-2.738h-9.862l-5.736 2.738zM4.568 20.689l5.736-2.738c0.224-0.109 0.487-0.173 0.766-0.173 0 0 0 0 0 0h9.862c0.265 0 0.527 0.059 0.766 0.173l5.736 2.738c0.603 0.293 1.012 0.901 1.012 1.604v0 6.151c0 0.982-0.796 1.778-1.778 1.778h-21.333c-0.982 0-1.778-0.796-1.778-1.778v-6.151c0-0.703 0.409-1.312 1.001-1.6l0.011-0.005zM16 14.222c2.945 0 5.333-2.388 5.333-5.333s-2.388-5.333-5.333-5.333-5.333 2.388-5.333 5.333 2.388 5.333 5.333 5.333zM16 16c-3.927 0-7.111-3.184-7.111-7.111s3.184-7.111 7.111-7.111 7.111 3.184 7.111 7.111-3.184 7.111-7.111 7.111zM18.667 23.111h3.556c0.491 0 0.889 0.398 0.889 0.889s-0.398 0.889-0.889 0.889h-3.556c-0.491 0-0.889-0.398-0.889-0.889s0.398-0.889 0.889-0.889z" fill="rgba(255,255,255,1)"></path>
    </g>
  </svg>