<svg id="icon_Like_Inactive" data-name="icon / Like / Inactive" xmlns="http://www.w3.org/2000/svg" width="24" height="24" viewBox="0 0 24 24">
  <g id="Notification" transform="translate(3.5 2)">
    <path id="Shape" d="M8.461,20a3.476,3.476,0,0,1-2.746-1.332.706.706,0,0,1,.11-.98.683.683,0,0,1,.968.112,2.105,2.105,0,0,0,1.413.79,2.14,2.14,0,0,0,1.578-.446,1.9,1.9,0,0,0,.355-.347.686.686,0,0,1,.463-.256.676.676,0,0,1,.076,0,.685.685,0,0,1,.432.155.708.708,0,0,1,.105.98,3.334,3.334,0,0,1-.6.583A3.458,3.458,0,0,1,8.461,20Zm.033-3.911a41.68,41.68,0,0,1-4.48-.242A4.869,4.869,0,0,1,.927,14.322,4.069,4.069,0,0,1,0,11.662v-.239A4.074,4.074,0,0,1,.669,9.38l.068-.085a3.863,3.863,0,0,0,.928-1.821l-.015.06,0-.534.013-.6c.009-.262.023-.5.042-.724A5.99,5.99,0,0,1,3.935,1.627,7.133,7.133,0,0,1,8.465,0h.071a7.137,7.137,0,0,1,4.53,1.627A6.017,6.017,0,0,1,15.3,5.685c.019.221.028.439.028.647V7c0,.125,0,.22,0,.31l.01.2.045.187a3.917,3.917,0,0,0,.726,1.431l.15.177.062.08A4.018,4.018,0,0,1,17,11.459l0,.4a4.087,4.087,0,0,1-.965,2.5,4.8,4.8,0,0,1-3.046,1.489A41.814,41.814,0,0,1,8.494,16.089ZM8.465,1.4A5.289,5.289,0,0,0,3.08,5.807c-.01.119-.019.253-.029.422L3.035,6.7l-.006.92-.014.142a5.259,5.259,0,0,1-1.22,2.433l-.084.14a2.66,2.66,0,0,0-.313.94l-.018.19v.218a2.658,2.658,0,0,0,.575,1.716,3.482,3.482,0,0,0,2.2,1.065,40.415,40.415,0,0,0,4.347.235,40.353,40.353,0,0,0,4.353-.236,3.416,3.416,0,0,0,2.156-1.03,2.647,2.647,0,0,0,.614-1.773V11.49a2.578,2.578,0,0,0-.435-1.323l.016.026-.138-.162a5.286,5.286,0,0,1-1.013-2l-.065-.276-.014-.093c-.01-.138-.014-.26-.018-.4l0-.9c0-.228-.008-.382-.022-.548A5.312,5.312,0,0,0,8.536,1.4Z" fill="#fff"/>
  </g>
</svg>
