<svg xmlns="http://www.w3.org/2000/svg" viewBox="0 0 32 32" width="24" height="24" style="border-color: rgba(0,0,0,0);border-width: bpx;border-style: undefined" filter="none">
    
    <g>
    <path d="M4.254 3.549c1.366 0 2.511 1.032 2.652 2.39l0.122 1.171h20.819c0.982 0 1.778 0.796 1.778 1.778 0 0.17-0.024 0.338-0.072 0.501l-2.646 9.009c-0.205 0.698-0.815 1.201-1.54 1.269l-16.866 1.58 0.112 1.075c0.047 0.453 0.429 0.797 0.884 0.797h17.115c0.491 0 0.889 0.398 0.889 0.889s-0.398 0.889-0.889 0.889h-17.115c-1.366 0-2.511-1.032-2.652-2.39l-1.707-16.383c-0.047-0.453-0.429-0.797-0.884-0.797h-2.476c-0.491 0-0.889-0.398-0.889-0.889s0.398-0.889 0.889-0.889h2.476zM8.317 19.48l16.884-1.582 2.646-9.009h-20.634l1.104 10.591z" fill="rgba(255,255,255,1)"></path><path d="M12.444 28.444c0 0.982-0.796 1.778-1.778 1.778s-1.778-0.796-1.778-1.778c0-0.982 0.796-1.778 1.778-1.778s1.778 0.796 1.778 1.778z" fill="rgba(255,255,255,1)"></path><path d="M24.889 28.444c0 0.982-0.796 1.778-1.778 1.778s-1.778-0.796-1.778-1.778c0-0.982 0.796-1.778 1.778-1.778s1.778 0.796 1.778 1.778z" fill="rgba(255,255,255,1)"></path>
    </g>
  </svg>