<svg xmlns="http://www.w3.org/2000/svg" width="10.667" height="8.889" viewBox="0 0 10.667 8.889">
  <path id="Path" d="M.329,6.339c.05.052.24.272.416.453A19.274,19.274,0,0,0,5.9,10.369a4.113,4.113,0,0,0,1.048.3,1.718,1.718,0,0,0,.8-.194,1.66,1.66,0,0,0,.707-.8,8.809,8.809,0,0,0,.228-.946A21.293,21.293,0,0,0,8.889,5.34,24.746,24.746,0,0,0,8.7,2.061,7.538,7.538,0,0,0,8.4.882,1.587,1.587,0,0,0,6.994,0h-.05A4.333,4.333,0,0,0,5.77.364,19.292,19.292,0,0,0,.732,3.889,5.022,5.022,0,0,0,.3,4.381a1.585,1.585,0,0,0-.3.946A1.665,1.665,0,0,0,.329,6.339Z" transform="translate(0 8.889) rotate(-90)" fill="#fff"/>
</svg>
